# xmcd
#
# Track frame offsets:
#	150
#	11648
#	21816
#	31451
#	42912
#	54545
#	67849
#	79604
#	91094
#	104259
#	119021
#	130838
#	141635
#
# Disc length: 2041 seconds
#
# Revision: 0
# Processed by: cddbd v1.5.1PL2 Copyright (c) Steve Scherf et al.
# Submitted via: dBpowerAMP V4.0
#
DISCID=ab07f70d
DTITLE=Barry Sadler - Ballads of the Green Beret
DYEAR=1900
DGENRE=
TTITLE0=Ballad of the Green Beret
TTITLE1=I'm Watching the Raindrops Fall
TTITLE2=The A Team
TTITLE3=Badge of Courage
TTITLE4=Bamiba
TTITLE5=I'm A Lucky One
TTITLE6=Letter From Vietnam
TTITLE7=Saigon
TTITLE8=The Soldier Has Come Home
TTITLE9=Trooper's Lament
TTITLE10=Garret Trooper
TTITLE11=Salute To the Nurse's of Vietnam
TTITLE12=Lullaby
EXTD=
EXTT0=
EXTT1=
EXTT2=
EXTT3=
EXTT4=
EXTT5=
EXTT6=
EXTT7=
EXTT8=
EXTT9=
EXTT10=
EXTT11=
EXTT12=
PLAYORDER=
